<svg id="Calque_1" data-name="Calque 1" xmlns="http://www.w3.org/2000/svg" viewBox="0 0 700 700"><defs><style>.cls-1{fill:#e6354d;}</style></defs><path class="cls-1" d="M350,127a15.17,15.17,0,0,1-15.17-15.17V58.75a15.17,15.17,0,0,1,30.34,0v53.08A15.17,15.17,0,0,1,350,127Z"/><path class="cls-1" d="M407.7,73.92H292.29a15.17,15.17,0,0,1,0-30.34H407.7a15.17,15.17,0,1,1,0,30.34Z"/><path class="cls-1" d="M195.65,183.91a15.09,15.09,0,0,1-10.73-4.44l-37.54-37.54a15.17,15.17,0,0,1,21.46-21.44L206.38,158a15.16,15.16,0,0,1-10.73,25.88Z"/><path class="cls-1" d="M136.55,167.93a15.16,15.16,0,0,1-10.73-25.88l43.12-43.12a15.17,15.17,0,1,1,21.46,21.44l-43.12,43.12a15.09,15.09,0,0,1-10.73,4.44Z"/><path class="cls-1" d="M188.86,364.82H161.14a15.17,15.17,0,0,1,0-30.34h27.72a15.17,15.17,0,0,1,0,30.34Z"/><path class="cls-1" d="M538.86,364.82H511.14a15.17,15.17,0,1,1,0-30.34h27.72a15.17,15.17,0,0,1,0,30.34Z"/><path class="cls-1" d="M350,553.7a15.17,15.17,0,0,1-15.17-15.17V510.79a15.17,15.17,0,0,1,30.34,0v27.74A15.17,15.17,0,0,1,350,553.7Z"/><path class="cls-1" d="M350,203.7a15.17,15.17,0,0,1-15.17-15.17V160.79a15.17,15.17,0,0,1,30.34,0v27.74A15.14,15.14,0,0,1,350,203.7Z"/><path class="cls-1" d="M216.44,498.38a15.16,15.16,0,0,1-10.73-25.88l19.62-19.62a15.17,15.17,0,0,1,21.47,21.44l-19.63,19.62a15.11,15.11,0,0,1-10.73,4.44Z"/><path class="cls-1" d="M463.94,250.91A15.16,15.16,0,0,1,453.21,225l19.62-19.62a15.17,15.17,0,1,1,21.47,21.44l-19.63,19.62a15.24,15.24,0,0,1-10.73,4.44Z"/><path class="cls-1" d="M483.56,498.38a15.09,15.09,0,0,1-10.73-4.44L453.2,474.32a15.17,15.17,0,0,1,21.47-21.44l19.62,19.62a15.16,15.16,0,0,1-10.73,25.88Z"/><path class="cls-1" d="M236.06,250.91a15.09,15.09,0,0,1-10.73-4.44l-19.62-19.64a15.17,15.17,0,0,1,21.46-21.44L246.79,225a15.18,15.18,0,0,1-10.73,25.9Z"/><path class="cls-1" d="M350,603C210.5,603,97,489.49,97,350S210.5,97,350,97,603,210.51,603,350,489.47,603,350,603Zm0-475.65c-122.76,0-222.62,99.89-222.62,222.65S227.24,572.63,350,572.63,572.64,472.74,572.64,350,472.75,127.33,350,127.33Z"/></svg>